<?xml version="1.0" standalone="no"?><!DOCTYPE svg PUBLIC "-//W3C//DTD SVG 1.1//EN" "http://www.w3.org/Graphics/SVG/1.1/DTD/svg11.dtd"><svg class="icon" width="50.00px" height="50.00px" viewBox="0 0 1024 1024" version="1.1" xmlns="http://www.w3.org/2000/svg"><path fill="#e6e6e6" d="M657.066667 483.242667l-4.992-0.298667a42.666667 42.666667 0 0 1-37.674667-42.368l0.298667-4.992a42.666667 42.666667 0 0 1 42.368-37.674667l108.288-0.042666-87.893334-80.938667-8.576-8.106667a289.152 289.152 0 0 0-330.666666-39.338666c-110.464 59.818667-167.04 183.722667-139.136 303.872 27.904 120.405333 133.973333 208.384 260.352 215.509333 126.378667 7.125333 242.176-68.437333 284.032-184.96a42.666667 42.666667 0 1 1 80.341333 28.842667c-54.741333 152.32-205.312 250.581333-369.194667 241.322666-163.925333-9.258667-302.08-123.861333-338.688-281.429333-36.608-157.738667 37.546667-320.128 181.589334-398.208 143.658667-77.866667 322.432-53.205333 438.698666 60.586667L832 343.296v-116.053333l0.298667-4.949334a42.666667 42.666667 0 0 1 85.034666 4.992v213.333334l-0.298666 4.949333a42.496 42.496 0 0 1-10.965334 23.936l2.901334-3.541333a42.88 42.88 0 0 1-2.218667 2.730666l-0.682667 0.853334a43.52 43.52 0 0 1-14.72 10.325333 42.538667 42.538667 0 0 1-16.682666 3.413333l4.693333-0.256a42.922667 42.922667 0 0 1-2.901333 0.213334H657.066667z"  /></svg>