<?xml version="1.0" encoding="UTF-8"?>
<svg xmlns="http://www.w3.org/2000/svg" xmlns:xlink="http://www.w3.org/1999/xlink" width="25pt" height="25pt" viewBox="0 0 25 25" version="1.1">
<g id="surface1">
<path style=" stroke:none;fill-rule:nonzero;fill:rgb(0%,0%,0%);fill-opacity:1;" d="M 12.5 24.324219 C 12.4375 24.324219 12.378906 24.324219 12.324219 24.320312 C 5.863281 24.21875 0.683594 18.949219 0.6875 12.492188 C 0.691406 6.03125 5.882812 0.773438 12.339844 0.679688 C 12.453125 0.671875 12.566406 0.671875 12.679688 0.679688 C 16.011719 0.726562 19.167969 2.179688 21.371094 4.679688 C 23.574219 7.179688 24.621094 10.496094 24.253906 13.808594 C 24.230469 13.992188 24.0625 14.125 23.878906 14.105469 C 23.691406 14.085938 23.558594 13.917969 23.582031 13.730469 C 23.625 13.324219 23.648438 12.910156 23.648438 12.5 C 23.648438 6.402344 18.746094 1.4375 12.652344 1.355469 C 12.589844 1.351562 12.546875 1.351562 12.5 1.351562 C 12.453125 1.351562 12.410156 1.351562 12.363281 1.355469 C 6.269531 1.429688 1.363281 6.394531 1.359375 12.492188 C 1.355469 18.589844 6.25 23.558594 12.347656 23.644531 C 12.410156 23.648438 12.453125 23.648438 12.5 23.648438 C 12.542969 23.648438 12.589844 23.648438 12.632812 23.644531 C 16.195312 23.601562 19.523438 21.859375 21.589844 18.957031 C 21.660156 18.855469 21.777344 18.800781 21.898438 18.8125 C 22.019531 18.824219 22.125 18.898438 22.175781 19.007812 C 22.226562 19.121094 22.210938 19.25 22.140625 19.347656 C 19.953125 22.421875 16.429688 24.265625 12.660156 24.320312 C 12.621094 24.324219 12.5625 24.324219 12.5 24.324219 Z M 12.5 24.324219 "/>
<path style=" stroke:none;fill-rule:nonzero;fill:rgb(0%,0%,0%);fill-opacity:1;" d="M 23.03125 17.433594 C 22.917969 17.433594 22.808594 17.375 22.746094 17.28125 C 22.683594 17.183594 22.675781 17.0625 22.722656 16.960938 C 22.859375 16.644531 22.972656 16.351562 23.066406 16.066406 C 23.128906 15.886719 23.320312 15.792969 23.496094 15.851562 C 23.671875 15.910156 23.769531 16.101562 23.710938 16.28125 C 23.609375 16.585938 23.488281 16.898438 23.339844 17.230469 C 23.285156 17.355469 23.164062 17.433594 23.03125 17.433594 Z M 23.03125 17.433594 "/>
<path style=" stroke:none;fill-rule:nonzero;fill:rgb(0%,0%,0%);fill-opacity:1;" d="M 12.5 6.757812 C 9.695312 6.726562 6.964844 5.828125 4.691406 4.183594 C 4.535156 4.078125 4.496094 3.867188 4.605469 3.714844 C 4.710938 3.558594 4.921875 3.519531 5.074219 3.628906 C 7.238281 5.191406 9.832031 6.050781 12.5 6.082031 C 15.167969 6.050781 17.761719 5.191406 19.925781 3.628906 C 20.078125 3.519531 20.289062 3.558594 20.394531 3.714844 C 20.503906 3.867188 20.464844 4.078125 20.308594 4.183594 C 18.035156 5.828125 15.304688 6.726562 12.5 6.757812 Z M 12.5 6.757812 "/>
<path style=" stroke:none;fill-rule:nonzero;fill:rgb(0%,0%,0%);fill-opacity:1;" d="M 20.300781 21.265625 C 20.238281 21.265625 20.175781 21.25 20.121094 21.214844 C 17.851562 19.738281 15.207031 18.941406 12.5 18.917969 C 9.792969 18.941406 7.148438 19.738281 4.878906 21.214844 C 4.722656 21.316406 4.511719 21.269531 4.414062 21.109375 C 4.3125 20.949219 4.359375 20.742188 4.519531 20.640625 C 6.894531 19.09375 9.664062 18.261719 12.5 18.242188 C 15.335938 18.261719 18.105469 19.09375 20.480469 20.640625 C 20.609375 20.722656 20.667969 20.878906 20.625 21.023438 C 20.582031 21.167969 20.449219 21.265625 20.300781 21.265625 Z M 20.300781 21.265625 "/>
<path style=" stroke:none;fill-rule:nonzero;fill:rgb(0%,0%,0%);fill-opacity:1;" d="M 12.5 24.324219 C 8.960938 24.324219 6.082031 19.019531 6.082031 12.5 C 6.082031 5.980469 8.960938 0.675781 12.5 0.675781 C 16.039062 0.675781 18.917969 5.980469 18.917969 12.5 C 18.917969 19.019531 16.039062 24.324219 12.5 24.324219 Z M 12.5 1.351562 C 9.332031 1.351562 6.757812 6.351562 6.757812 12.5 C 6.757812 18.648438 9.332031 23.648438 12.5 23.648438 C 15.667969 23.648438 18.242188 18.648438 18.242188 12.5 C 18.242188 6.351562 15.667969 1.351562 12.5 1.351562 Z M 12.5 1.351562 "/>
<path style=" stroke:none;fill-rule:nonzero;fill:rgb(0%,0%,0%);fill-opacity:1;" d="M 12.5 24.324219 C 12.3125 24.324219 12.164062 24.171875 12.164062 23.988281 L 12.164062 1.011719 C 12.164062 0.828125 12.3125 0.675781 12.5 0.675781 C 12.6875 0.675781 12.835938 0.828125 12.835938 1.011719 L 12.835938 23.988281 C 12.835938 24.171875 12.6875 24.324219 12.5 24.324219 Z M 12.5 24.324219 "/>
<path style=" stroke:none;fill-rule:nonzero;fill:rgb(0%,0%,0%);fill-opacity:1;" d="M 23.988281 12.835938 L 1.011719 12.835938 C 0.828125 12.835938 0.675781 12.6875 0.675781 12.5 C 0.675781 12.3125 0.828125 12.164062 1.011719 12.164062 L 23.988281 12.164062 C 24.171875 12.164062 24.324219 12.3125 24.324219 12.5 C 24.324219 12.6875 24.171875 12.835938 23.988281 12.835938 Z M 23.988281 12.835938 "/>
</g>
</svg>
