<svg width="22" height="23" viewBox="0 0 22 23" fill="none" xmlns="http://www.w3.org/2000/svg">
<rect y="7.37323" width="15.9035" height="13.8515" rx="3" fill="#28AEB1"/>
<path d="M10.5168 15.8775V6.13017C10.5168 3.29686 12.8136 1 15.6469 1V1C18.4802 1 20.7771 3.29686 20.7771 6.13017V8.43875" stroke="#28AEB1" stroke-width="2"/>
<path d="M10.881 19.396C10.881 19.318 10.866 19.279 10.836 19.279L10.629 19.378C10.629 19.336 10.605 19.306 10.557 19.288L10.485 19.279C10.437 19.279 10.377 19.3 10.305 19.342C10.293 19.312 10.278 19.282 10.26 19.252C10.242 19.222 10.227 19.195 10.215 19.171C10.137 19.021 10.059 18.856 9.981 18.676C9.909 18.49 9.84 18.313 9.774 18.145C9.714 17.977 9.666 17.845 9.63 17.749C9.606 17.671 9.579 17.554 9.549 17.398C9.519 17.242 9.489 17.044 9.459 16.804C9.525 16.846 9.576 16.867 9.612 16.867C9.654 16.867 9.693 16.804 9.729 16.678C9.747 16.702 9.78 16.714 9.828 16.714C9.864 16.714 9.891 16.702 9.909 16.678L10.053 16.462L10.215 16.516H10.224C10.236 16.516 10.248 16.51 10.26 16.498C10.272 16.486 10.29 16.474 10.314 16.462C10.362 16.432 10.398 16.417 10.422 16.417L10.449 16.426C10.599 16.498 10.695 16.63 10.737 16.822C10.845 17.278 10.953 17.506 11.061 17.506C11.169 17.506 11.295 17.392 11.439 17.164C11.511 17.05 11.583 16.918 11.655 16.768C11.733 16.618 11.811 16.45 11.889 16.264C11.901 16.336 11.913 16.372 11.925 16.372C11.955 16.372 12.006 16.297 12.078 16.147C12.156 15.997 12.279 15.79 12.447 15.526C12.543 15.364 12.663 15.181 12.807 14.977C12.957 14.773 13.116 14.563 13.284 14.347C13.452 14.131 13.614 13.927 13.77 13.735C13.932 13.543 14.076 13.378 14.202 13.24C14.328 13.102 14.421 13.012 14.481 12.97C14.709 12.814 14.889 12.664 15.021 12.52C15.015 12.562 15.006 12.601 14.994 12.637C14.988 12.667 14.985 12.688 14.985 12.7C14.985 12.724 14.997 12.736 15.021 12.736L15.273 12.61V12.646C15.273 12.694 15.285 12.718 15.309 12.718C15.327 12.718 15.363 12.691 15.417 12.637C15.471 12.583 15.501 12.544 15.507 12.52L15.489 12.646L15.795 12.466L15.723 12.628C15.819 12.562 15.888 12.529 15.93 12.529C15.954 12.529 15.972 12.544 15.984 12.574C15.996 12.598 16.002 12.622 16.002 12.646C16.002 12.682 15.987 12.724 15.957 12.772C15.927 12.82 15.888 12.877 15.84 12.943C15.804 12.991 15.744 13.063 15.66 13.159C15.582 13.249 15.462 13.384 15.3 13.564C15.138 13.738 14.922 13.981 14.652 14.293C14.58 14.371 14.469 14.509 14.319 14.707C14.169 14.899 13.998 15.124 13.806 15.382C13.62 15.634 13.434 15.889 13.248 16.147C13.062 16.405 12.897 16.639 12.753 16.849C12.609 17.053 12.507 17.206 12.447 17.308L11.889 18.253C11.769 18.457 11.67 18.625 11.592 18.757C11.514 18.883 11.454 18.97 11.412 19.018C11.322 19.126 11.223 19.222 11.115 19.306L11.034 19.261L10.962 19.306L10.881 19.396Z" fill="#FCE15E"/>
</svg>
