<svg width="12" height="20" viewBox="0 0 12 20" fill="none" xmlns="http://www.w3.org/2000/svg">
<path d="M11.2479 6.10551C11.3239 6.02765 11.3237 5.90332 11.2475 5.82569L5.86963 0.349002C5.74417 0.221239 5.52692 0.310069 5.52692 0.489129V7.5416C5.52692 7.72096 5.30907 7.80965 5.1838 7.6813L2.31218 4.73916C2.23502 4.66011 2.10839 4.65858 2.02934 4.73574L1.10037 5.64265C1.02134 5.7198 1.01981 5.84641 1.09696 5.92545L4.93776 9.86046C5.01359 9.93815 5.01359 10.0622 4.93776 10.1399L1.09702 14.0748C1.01986 14.1539 1.0214 14.2805 1.10045 14.3577L2.02938 15.2643C2.10843 15.3414 2.23505 15.3399 2.3122 15.2609L5.18384 12.3187C5.30911 12.1904 5.52696 12.279 5.52696 12.4584V19.5109C5.52696 19.6899 5.74422 19.7787 5.86967 19.651L11.2475 14.174C11.3237 14.0964 11.3239 13.972 11.2479 13.8942L7.58342 10.1398C7.50759 10.0621 7.50759 9.93812 7.58341 9.86042L11.2479 6.10551ZM7.56779 15.4981C7.44233 15.6258 7.22509 15.537 7.22509 15.3579V12.695C7.22509 12.5157 7.44294 12.427 7.56822 12.5553L8.87169 13.8909C8.94768 13.9687 8.94749 14.093 8.87126 14.1707L7.56779 15.4981ZM8.8713 5.82932C8.94753 5.90695 8.94772 6.03128 8.87173 6.10914L7.56825 7.44465C7.44298 7.573 7.22513 7.48431 7.22513 7.30496V4.64205C7.22513 4.46299 7.44237 4.37416 7.56783 4.50192L8.8713 5.82932Z" fill="#C6C6C6"/>
</svg>
