<?xml version="1.0" encoding="UTF-8"?>
<svg xmlns="http://www.w3.org/2000/svg" xmlns:xlink="http://www.w3.org/1999/xlink" width="24pt" height="24pt" viewBox="0 0 24 24" version="1.1">
<g id="surface1">
<path style=" stroke:none;fill-rule:nonzero;fill:rgb(0%,0%,0%);fill-opacity:1;" d="M 23.0625 11.0625 L 12.9375 11.0625 L 12.9375 0.9375 C 12.9375 0.417969 12.519531 0 12 0 C 11.480469 0 11.0625 0.417969 11.0625 0.9375 L 11.0625 11.0625 L 0.9375 11.0625 C 0.417969 11.0625 0 11.480469 0 12 C 0 12.519531 0.417969 12.9375 0.9375 12.9375 L 11.0625 12.9375 L 11.0625 23.0625 C 11.0625 23.582031 11.480469 24 12 24 C 12.519531 24 12.9375 23.582031 12.9375 23.0625 L 12.9375 12.9375 L 23.0625 12.9375 C 23.582031 12.9375 24 12.519531 24 12 C 24 11.480469 23.582031 11.0625 23.0625 11.0625 Z M 23.0625 11.0625 "/>
</g>
</svg>
