<?xml version="1.0" encoding="UTF-8"?>
<svg xmlns="http://www.w3.org/2000/svg" xmlns:xlink="http://www.w3.org/1999/xlink" width="25pt" height="25pt" viewBox="0 0 25 25" version="1.1">
<g id="surface1">
<path style=" stroke:none;fill-rule:nonzero;fill:rgb(0%,0%,0%);fill-opacity:1;" d="M 20.609375 7.050781 L 4.390625 7.050781 C 4.214844 7.035156 4.042969 7.09375 3.910156 7.210938 C 3.78125 7.335938 3.722656 7.515625 3.75 7.691406 L 5.417969 22.210938 C 5.613281 23.8125 6.976562 25.011719 8.589844 25 L 16.667969 25 C 18.324219 25.023438 19.722656 23.765625 19.871094 22.113281 L 21.25 7.628906 C 21.257812 7.472656 21.199219 7.320312 21.089844 7.210938 C 20.957031 7.09375 20.785156 7.035156 20.609375 7.050781 Z M 18.589844 22.050781 C 18.488281 23.027344 17.648438 23.757812 16.667969 23.71875 L 8.589844 23.71875 C 7.628906 23.757812 6.800781 23.042969 6.699219 22.082031 L 5.097656 8.332031 L 19.902344 8.332031 Z M 18.589844 22.050781 "/>
<path style=" stroke:none;fill-rule:nonzero;fill:rgb(0%,0%,0%);fill-opacity:1;" d="M 22.949219 2.886719 L 16.347656 2.886719 L 16.347656 1.859375 C 16.382812 0.867188 15.605469 0.0351562 14.617188 0 C 14.585938 0 14.550781 0 14.519531 0 L 10.480469 0 C 9.488281 -0.0195312 8.671875 0.769531 8.652344 1.761719 C 8.652344 1.792969 8.652344 1.828125 8.652344 1.859375 L 8.652344 2.886719 L 2.050781 2.886719 C 1.699219 2.886719 1.410156 3.171875 1.410156 3.527344 C 1.410156 3.878906 1.699219 4.167969 2.050781 4.167969 L 22.949219 4.167969 C 23.300781 4.167969 23.589844 3.878906 23.589844 3.527344 C 23.589844 3.171875 23.300781 2.886719 22.949219 2.886719 Z M 15.0625 1.859375 L 15.0625 2.886719 L 9.9375 2.886719 L 9.9375 1.859375 C 9.898438 1.578125 10.097656 1.320312 10.378906 1.285156 C 10.414062 1.28125 10.445312 1.28125 10.480469 1.28125 L 14.519531 1.28125 C 14.800781 1.261719 15.046875 1.476562 15.066406 1.757812 C 15.070312 1.792969 15.070312 1.824219 15.0625 1.859375 Z M 15.0625 1.859375 "/>
</g>
</svg>
