<?xml version="1.0" standalone="no"?><!DOCTYPE svg PUBLIC "-//W3C//DTD SVG 1.1//EN" "http://www.w3.org/Graphics/SVG/1.1/DTD/svg11.dtd"><svg t="1709779170432" class="icon" viewBox="0 0 1024 1024" version="1.1" xmlns="http://www.w3.org/2000/svg" p-id="1432" xmlns:xlink="http://www.w3.org/1999/xlink" width="32" height="32"><path d="M982.4 817.06666667c21.20746667 0 38.4 17.19253333 38.4 38.4s-17.19253333 38.4-38.4 38.4H41.6c-21.20746667 0-38.4-17.19253333-38.4-38.4s17.19253333-38.4 38.4-38.4h940.8z m-77.86666667-685.86666667c47.12853333 0 85.33333333 38.2048 85.33333334 85.33333333v478.93333334c0 47.12853333-38.2048 85.33333333-85.33333334 85.33333333H119.46666667c-47.12853333 0-85.33333333-38.2048-85.33333334-85.33333333V216.53333333c0-47.12853333 38.2048-85.33333333 85.33333334-85.33333333h785.06666666z m0.26666667 76.8H119.46666667a8.53973333 8.53973333 0 0 0-8.53333334 8.26666667V695.46666667a8.53973333 8.53973333 0 0 0 8.26666667 8.53333333H904.53333333a8.53973333 8.53973333 0 0 0 8.53333334-8.26666667V216.53333333a8.53973333 8.53973333 0 0 0-8.26666667-8.53333333z" fill="#707070" p-id="1433"></path></svg>