<svg width="33" height="33" viewBox="0 0 33 33" fill="none" xmlns="http://www.w3.org/2000/svg">
<circle cx="16.5" cy="16.5" r="16.5" fill="#EAEAEA"/>
<path d="M22.0656 8.66094C21.9024 8.66094 21.7441 8.68141 21.5926 8.71996V8.16562C21.5926 7.08664 20.7249 6.20883 19.6583 6.20883C19.2609 6.20883 18.8913 6.33082 18.5835 6.53934C18.2363 6.20516 17.7672 6 17.2513 6C16.3693 6 15.6235 6.6002 15.3916 7.41805C15.1882 7.34434 14.9694 7.3043 14.7412 7.3043C13.6746 7.3043 12.8069 8.18211 12.8069 9.26109V12.5027C12.5754 12.4116 12.3239 12.3614 12.0609 12.3614C10.9245 12.3614 10 13.2964 10 14.446V18.3404C10 20.813 11.4876 25.5921 17.1171 25.9829C17.2822 25.9942 17.4487 26 17.6119 26C21.1342 26 24 23.1727 24 19.6973V10.6177C24 9.53875 23.1323 8.66094 22.0656 8.66094ZM17.6119 24.9042C17.4734 24.9042 17.3335 24.8993 17.1911 24.8895C11.9914 24.5287 11.0832 19.9415 11.0832 18.3403V14.446C11.0832 13.8999 11.5211 13.4572 12.0609 13.4572C12.6007 13.4572 13.0386 13.8999 13.0386 14.446V17.4537H13.8901V9.26113C13.8901 8.78566 14.2712 8.40012 14.7412 8.40012C15.2112 8.40012 15.5923 8.78566 15.5923 9.26113V15.2361H16.4002V7.9568C16.4002 7.48133 16.7813 7.09582 17.2513 7.09582C17.7213 7.09582 18.1024 7.48137 18.1024 7.9568V15.2361H18.8072V8.16562C18.8072 7.69016 19.1884 7.30465 19.6584 7.30465C20.1283 7.30465 20.5094 7.6902 20.5094 8.16562V15.2361H21.2146V10.6177C21.2146 10.1423 21.5957 9.75672 22.0657 9.75672C22.5357 9.75672 22.9168 10.1423 22.9168 10.6177V19.6973C22.9168 22.3964 20.7627 24.9042 17.6119 24.9042Z" fill="#737272"/>
</svg>
