<svg width="21" height="22" viewBox="0 0 21 22" fill="none" xmlns="http://www.w3.org/2000/svg">
<rect width="15.9035" height="13.8515" rx="3" transform="matrix(-1 0 0 1 15.9036 7.18225)" fill="#CC4A44"/>
<rect x="-1" y="1" width="8.26035" height="12.8775" rx="4.13017" transform="matrix(-1 0 0 1 10.8254 0)" stroke="#CC4A44" stroke-width="2"/>
<path d="M6.282 18.19H7.092V18.814H6.282V18.19ZM7.092 16.858H6.282V16.246H7.092V16.858ZM7.092 17.842H6.282V17.206H7.092V17.842ZM4.896 18.334H4.122V16.51H4.896V18.334ZM8.736 18.814H7.512V18.19H8.454V17.842H7.512V17.206H8.454V16.858H7.512V16.246H8.55V15.868H7.602C7.692 15.682 7.794 15.466 7.89 15.262L7.47 15.16C7.41 15.364 7.302 15.64 7.2 15.868H6.468C6.654 15.598 6.81 15.298 6.954 14.98H8.304V15.61H8.706V14.59H7.11C7.17 14.422 7.224 14.242 7.278 14.062L6.852 13.978C6.798 14.188 6.732 14.392 6.654 14.59H5.454V15.61H5.844V14.98H6.486C6.186 15.616 5.778 16.15 5.274 16.534V16.126H4.164C4.278 15.706 4.368 15.256 4.434 14.794H5.442V14.386H3.336V14.794H4.014C3.858 15.832 3.606 16.792 3.168 17.428C3.246 17.524 3.372 17.74 3.42 17.842C3.546 17.668 3.654 17.47 3.756 17.26V19.192H4.122V18.724H5.274V16.612C5.364 16.696 5.49 16.822 5.544 16.894C5.652 16.804 5.76 16.714 5.862 16.612V19.456H6.282V19.198H8.736V18.814ZM9.948 15.088H14.034V15.964H14.49V14.668H12.222V13.984H11.76V14.668H9.51V15.964H9.948V15.088ZM12.222 17.638H13.998V17.224H12.222V16.228H13.752V15.808H10.278V16.228H11.766V18.742C11.274 18.556 10.89 18.214 10.662 17.584C10.722 17.332 10.77 17.068 10.806 16.786L10.35 16.744C10.218 17.818 9.894 18.67 9.228 19.186C9.336 19.252 9.522 19.408 9.594 19.486C9.984 19.144 10.278 18.7 10.488 18.148C11.034 19.162 11.928 19.378 13.17 19.378H14.562C14.58 19.246 14.658 19.036 14.73 18.928C14.442 18.934 13.41 18.934 13.194 18.934C12.846 18.934 12.516 18.916 12.222 18.862V17.638Z" fill="#FDFDFD"/>
</svg>
