<?xml version="1.0" standalone="no"?><!DOCTYPE svg PUBLIC "-//W3C//DTD SVG 1.1//EN" "http://www.w3.org/Graphics/SVG/1.1/DTD/svg11.dtd"><svg class="icon" width="50.00px" height="50.00px" viewBox="0 0 1024 1024" version="1.1" xmlns="http://www.w3.org/2000/svg"><path fill="#e6e6e6" d="M149.333333 483.242667l-1.877333-0.042667a42.922667 42.922667 0 0 1-2.816-0.213333l4.693333 0.256a42.538667 42.538667 0 0 1-31.36-13.781334l-0.725333-0.810666a42.88 42.88 0 0 1-2.218667-2.730667l2.944 3.541333a43.008 43.008 0 0 1-11.008-23.893333L106.666667 442.88v-1.578667L106.666667 227.242667a42.666667 42.666667 0 0 1 85.034666-4.992l0.298667 4.992v115.968l95.786667-88.149334C404.053333 141.226667 582.826667 116.565333 726.485333 194.474667c144.042667 78.037333 218.197333 240.426667 181.589334 398.165333-36.565333 157.568-174.762667 272.213333-338.688 281.429333-163.882667 9.258667-314.453333-89.002667-369.152-241.322666a42.666667 42.666667 0 0 1 80.298666-28.842667c41.856 116.522667 157.653333 192.085333 284.032 184.96 126.336-7.125333 232.448-95.146667 260.394667-215.466667 27.861333-120.192-28.714667-244.053333-139.136-303.914666a289.152 289.152 0 0 0-330.666667 39.338666l-8.618666 8.106667L258.56 397.866667h108.373333a42.666667 42.666667 0 0 1 42.325334 37.717333l0.298666 4.992a42.666667 42.666667 0 0 1-37.674666 42.368l-4.992 0.298667H149.333333z"  /></svg>