<?xml version="1.0" encoding="us-ascii" standalone="no"?><svg xmlns="http://www.w3.org/2000/svg" xmlns:xlink="http://www.w3.org/1999/xlink" contentStyleType="text/css" height="617px" preserveAspectRatio="none" style="width:257px;height:617px;background:#FFFFFF;" version="1.1" viewBox="0 0 257 617" width="257px" zoomAndPan="magnify"><defs/><g><ellipse cx="128.5" cy="20" fill="#222222" rx="10" ry="10" style="stroke:#222222;stroke-width:1.0;"/><rect fill="#F1F1F1" height="36.3887" rx="12.5" ry="12.5" style="stroke:#181818;stroke-width:0.5;" width="94" x="81.5" y="50"/><text fill="#000000" font-family="sans-serif" font-size="12" lengthAdjust="spacing" textLength="74" x="91.5" y="73.752">Ble_noSignal</text><rect fill="#F1F1F1" height="36.3887" rx="12.5" ry="12.5" style="stroke:#181818;stroke-width:0.5;" width="73" x="92" y="106.3887"/><text fill="#000000" font-family="sans-serif" font-size="12" lengthAdjust="spacing" textLength="53" x="102" y="130.1406">Ble_Scan</text><rect fill="#F1F1F1" height="36.3887" rx="12.5" ry="12.5" style="stroke:#181818;stroke-width:0.5;" width="113" x="72" y="162.7773"/><text fill="#000000" font-family="sans-serif" font-size="12" lengthAdjust="spacing" textLength="93" x="82" y="186.5293">Ble_waitConnect</text><rect fill="#F1F1F1" height="36.3887" rx="12.5" ry="12.5" style="stroke:#181818;stroke-width:0.5;" width="108" x="74.5" y="242.606"/><text fill="#000000" font-family="sans-serif" font-size="12" lengthAdjust="spacing" textLength="88" x="84.5" y="266.3579">Ble_Connecting</text><rect fill="#F1F1F1" height="36.3887" rx="12.5" ry="12.5" style="stroke:#181818;stroke-width:0.5;" width="106" x="75.5" y="298.9946"/><text fill="#000000" font-family="sans-serif" font-size="12" lengthAdjust="spacing" textLength="86" x="85.5" y="322.7466">Ble_waitingGatt</text><rect fill="#F1F1F1" height="36.3887" rx="12.5" ry="12.5" style="stroke:#181818;stroke-width:0.5;" width="116" x="70.5" y="355.3833"/><text fill="#000000" font-family="sans-serif" font-size="12" lengthAdjust="spacing" textLength="96" x="80.5" y="379.1353">Ble_isRegistered</text><rect fill="#555555" height="6" rx="2.5" ry="2.5" style="stroke:#555555;stroke-width:1.0;" width="235" x="11" y="411.772"/><rect fill="#F1F1F1" height="36.3887" rx="12.5" ry="12.5" style="stroke:#181818;stroke-width:0.5;" width="136" x="23" y="437.772"/><text fill="#000000" font-family="sans-serif" font-size="12" lengthAdjust="spacing" textLength="116" x="33" y="461.5239">Ble_readyToRegister</text><rect fill="#F1F1F1" height="36.3887" rx="12.5" ry="12.5" style="stroke:#181818;stroke-width:0.5;" width="47" x="187" y="437.772"/><text fill="#000000" font-family="sans-serif" font-size="12" lengthAdjust="spacing" textLength="27" x="197" y="461.5239">login</text><polygon fill="#F1F1F1" points="128.5,484.1606,140.5,496.1606,128.5,508.1606,116.5,496.1606,128.5,484.1606" style="stroke:#181818;stroke-width:0.5;"/><rect fill="#F1F1F1" height="36.3887" rx="12.5" ry="12.5" style="stroke:#181818;stroke-width:0.5;" width="102" x="77.5" y="528.1606"/><text fill="#000000" font-family="sans-serif" font-size="12" lengthAdjust="spacing" textLength="82" x="87.5" y="551.9126">Ble_connected</text><ellipse cx="128.5" cy="595.5493" fill="none" rx="11" ry="11" style="stroke:#222222;stroke-width:1.0;"/><ellipse cx="128.5" cy="595.5493" fill="#222222" rx="6" ry="6" style="stroke:#111111;stroke-width:1.0;"/><line style="stroke:#181818;stroke-width:1.0;" x1="128.5" x2="128.5" y1="30" y2="50"/><polygon fill="#181818" points="124.5,40,128.5,50,132.5,40,128.5,44" style="stroke:#181818;stroke-width:1.0;"/><line style="stroke:#181818;stroke-width:1.0;" x1="128.5" x2="128.5" y1="86.3887" y2="106.3887"/><polygon fill="#181818" points="124.5,96.3887,128.5,106.3887,132.5,96.3887,128.5,100.3887" style="stroke:#181818;stroke-width:1.0;"/><line style="stroke:#181818;stroke-width:1.0;" x1="128.5" x2="128.5" y1="142.7773" y2="162.7773"/><polygon fill="#181818" points="124.5,152.7773,128.5,162.7773,132.5,152.7773,128.5,156.7773" style="stroke:#181818;stroke-width:1.0;"/><line style="stroke:#181818;stroke-width:1.0;" x1="128.5" x2="128.5" y1="199.166" y2="242.606"/><polygon fill="#181818" points="124.5,232.606,128.5,242.606,132.5,232.606,128.5,236.606" style="stroke:#181818;stroke-width:1.0;"/><text fill="#000000" font-family="sans-serif" font-size="11" lengthAdjust="spacing" textLength="39" x="132.5" y="222.689">connect</text><line style="stroke:#181818;stroke-width:1.0;" x1="128.5" x2="128.5" y1="278.9946" y2="298.9946"/><polygon fill="#181818" points="124.5,288.9946,128.5,298.9946,132.5,288.9946,128.5,292.9946" style="stroke:#181818;stroke-width:1.0;"/><line style="stroke:#181818;stroke-width:1.0;" x1="128.5" x2="128.5" y1="335.3833" y2="355.3833"/><polygon fill="#181818" points="124.5,345.3833,128.5,355.3833,132.5,345.3833,128.5,349.3833" style="stroke:#181818;stroke-width:1.0;"/><line style="stroke:#181818;stroke-width:1.0;" x1="91" x2="91" y1="417.772" y2="437.772"/><polygon fill="#181818" points="87,427.772,91,437.772,95,427.772,91,431.772" style="stroke:#181818;stroke-width:1.0;"/><text fill="#000000" font-family="sans-serif" font-size="11" lengthAdjust="spacing" textLength="12" x="95" y="432.8665">no</text><line style="stroke:#181818;stroke-width:1.0;" x1="210.5" x2="210.5" y1="417.772" y2="437.772"/><polygon fill="#181818" points="206.5,427.772,210.5,437.772,214.5,427.772,210.5,431.772" style="stroke:#181818;stroke-width:1.0;"/><text fill="#000000" font-family="sans-serif" font-size="11" lengthAdjust="spacing" textLength="18" x="214.5" y="432.8665">yes</text><line style="stroke:#181818;stroke-width:1.0;" x1="91" x2="91" y1="474.1606" y2="496.1606"/><line style="stroke:#181818;stroke-width:1.0;" x1="91" x2="116.5" y1="496.1606" y2="496.1606"/><polygon fill="#181818" points="106.5,492.1606,116.5,496.1606,106.5,500.1606,110.5,496.1606" style="stroke:#181818;stroke-width:1.0;"/><line style="stroke:#181818;stroke-width:1.0;" x1="210.5" x2="210.5" y1="474.1606" y2="496.1606"/><line style="stroke:#181818;stroke-width:1.0;" x1="210.5" x2="140.5" y1="496.1606" y2="496.1606"/><polygon fill="#181818" points="150.5,492.1606,140.5,496.1606,150.5,500.1606,146.5,496.1606" style="stroke:#181818;stroke-width:1.0;"/><line style="stroke:#181818;stroke-width:1.0;" x1="128.5" x2="128.5" y1="391.772" y2="411.772"/><polygon fill="#181818" points="124.5,401.772,128.5,411.772,132.5,401.772,128.5,405.772" style="stroke:#181818;stroke-width:1.0;"/><line style="stroke:#181818;stroke-width:1.0;" x1="128.5" x2="128.5" y1="508.1606" y2="528.1606"/><polygon fill="#181818" points="124.5,518.1606,128.5,528.1606,132.5,518.1606,128.5,522.1606" style="stroke:#181818;stroke-width:1.0;"/><line style="stroke:#181818;stroke-width:1.0;" x1="128.5" x2="128.5" y1="564.5493" y2="584.5493"/><polygon fill="#181818" points="124.5,574.5493,128.5,584.5493,132.5,574.5493,128.5,578.5493" style="stroke:#181818;stroke-width:1.0;"/><!--SRC=[JOxDJWCn38JlVehS5WvBL8w9L2HwuDvoHoPhKekiioGkLT-UT7yaV9hnVD9CTrQTghDsIYXw6TDJoAEjz7CX2TGFZB7W250LYu9xJVGX-SHHCFd5dWBAAg_8UiWY5DH3lm-RdCCrO8d_wERUK3U4wv4YLwL2WuUlNBx16DFl9VicPgGG3hVtl74BPJ0Yovrjy8sgdwLBENARHZAOaKgafMHTTM-ecYUmNQ69K8t32WvtRGi-UrYVrpCdCWy3AXhyHKxucUZbiREmt1y0]--></g></svg>