<svg xmlns="http://www.w3.org/2000/svg" width="24" height="24" viewBox="0 0 24 24">
  <path d="M2,21V19.1C2,18.4 2.5,17.6 3.1,17.3L8.8,14.5C9.6,14.1 9.8,13.2 9.2,12.5L8.8,12C8.1,11.1 7.5,9.5 7.5,8.3V7C7.5,4.8 9.3,3 11.5,3C13.7,3 15.5,4.8 15.5,7V8.3C15.5,9.5 14.9,11.1 14.2,12L13.8,12.5C13.2,13.2 13.4,14.1 14.2,14.5L19.9,17.3C20.5,17.6 21,18.4 21,19.1V21H2Z" fill="#000000"/>
  <path d="M20,14.5H23V15.7H20V14.5Z" fill="#000000"/>
  <path d="M18,11.5H23V12.7H18V11.5Z" fill="#000000"/>
  <path d="M16,8.5H23V9.7H16V8.5Z" fill="#000000"/>
</svg>
