<svg width="12" height="18" viewBox="0 0 12 18" fill="none" xmlns="http://www.w3.org/2000/svg">
<path d="M10.342 3.13798C10.2021 3.13798 10.0663 3.15553 9.93656 3.18857V2.71343C9.93656 1.78858 9.19279 1.03617 8.27856 1.03617C7.93789 1.03617 7.62108 1.14074 7.35732 1.31947C7.05967 1.03303 6.6576 0.857178 6.21538 0.857178C5.45943 0.857178 4.82012 1.37163 4.6214 2.07265C4.44704 2.00947 4.25947 1.97515 4.0639 1.97515C3.14968 1.97515 2.4059 2.72756 2.4059 3.6524V6.43088C2.20745 6.3528 1.99192 6.30981 1.76652 6.30981C0.792458 6.30981 0 7.11124 0 8.09662V11.4346C0 13.554 1.27509 17.6504 6.1004 17.9854C6.24186 17.995 6.38458 18 6.52448 18C9.54359 18 12 15.5767 12 12.5977V4.81524C12 3.89039 11.2562 3.13798 10.342 3.13798ZM6.52445 17.0608C6.40579 17.0608 6.28585 17.0565 6.16382 17.0482C1.70692 16.7389 0.928457 12.8071 0.928457 11.4346V8.09659C0.928457 7.62854 1.30382 7.24905 1.76649 7.24905C2.2292 7.24905 2.60456 7.62854 2.60456 8.09659V10.6746H3.33436V3.65243C3.33436 3.24489 3.66104 2.91442 4.06387 2.91442C4.46673 2.91442 4.79341 3.24489 4.79341 3.65243V8.77383H5.48588V2.53443C5.48588 2.12689 5.81255 1.79645 6.21538 1.79645C6.61825 1.79645 6.94492 2.12692 6.94492 2.53443V8.77383H7.54906V2.71343C7.54906 2.30588 7.87573 1.97545 8.27859 1.97545C8.68143 1.97545 9.0081 2.30592 9.0081 2.71343V8.77383H9.6125V4.81524C9.6125 4.40769 9.93917 4.07722 10.342 4.07722C10.7449 4.07722 11.0715 4.40769 11.0715 4.81524V12.5977C11.0715 14.9112 9.22519 17.0608 6.52445 17.0608Z" fill="#737272"/>
</svg>
