<svg id="_x33_0" enable-background="new 0 0 64 64" height="512" viewBox="0 0 64 64" width="512" xmlns="http://www.w3.org/2000/svg"><g><path d="m28 25c-1.654 0-3 1.346-3 3s1.346 3 3 3 3-1.346 3-3-1.346-3-3-3zm0 4c-.552 0-1-.448-1-1s.448-1 1-1 1 .448 1 1-.448 1-1 1z"/><path d="m62 47.586-3.586-3.586c-1-1-2.575-1.214-3.834-.662l-2.71-2.71c2.03-3.834 3.13-8.146 3.13-12.628 0-14.888-12.112-27-27-27s-27 12.112-27 27 12.112 27 27 27c4.408 0 8.749-1.092 12.618-3.14l2.708 2.708c-.207.444-.326.927-.326 1.432 0 .912.355 1.77 1 2.414l3.586 3.586c.645.645 1.502 1 2.414 1s1.77-.355 2.414-1l9.586-9.586c.645-.645 1-1.502 1-2.414s-.355-1.77-1-2.414zm-9-3-1.414 1.414-1.908-1.908c.406-.545.796-1.099 1.158-1.67zm0 11.414c-1.654 0-3-1.346-3-3s1.346-3 3-3 3 1.346 3 3-1.346 3-3 3zm-8.414-3-7.843-7.843c-1.124-1.123-1.743-2.617-1.743-4.207 0-3.281 2.669-5.95 5.95-5.95 1.497 0 2.904.555 4.002 1.557-.309.612-.653 1.206-1.027 1.783l-.182-.182c-.746-.747-1.738-1.158-2.793-1.158-2.178 0-3.95 1.772-3.95 3.95 0 1.055.411 2.047 1.157 2.793l7.843 7.843zm1.199-18.351c-1.381-1.065-3.061-1.649-4.835-1.649-1.832 0-3.516.629-4.862 1.674l-2.49-2.49c.686-.915 1.151-2.001 1.322-3.184h12.05c-.104 1.946-.51 3.85-1.185 5.649zm-17.785-1.649c-2.757 0-5-2.243-5-5s2.243-5 5-5 5 2.243 5 5-2.243 5-5 5zm6.92-6c-.17-1.183-.636-2.269-1.322-3.184l8.504-8.504c2.824 3.135 4.612 7.204 4.847 11.688zm-2.736-4.598c-.915-.686-2.001-1.152-3.184-1.322v-12.029c4.484.235 8.553 2.024 11.688 4.847zm-5.184-1.322c-1.183.17-2.269.636-3.184 1.322l-8.504-8.504c3.135-2.824 7.204-4.612 11.688-4.847zm-13.102-5.768 8.504 8.504c-.686.915-1.152 2.001-1.322 3.184h-12.029c.235-4.484 2.023-8.553 4.847-11.688zm7.182 13.688c.17 1.183.636 2.269 1.322 3.184l-8.504 8.504c-2.824-3.135-4.612-7.204-4.847-11.688zm2.736 4.598c.915.686 2.001 1.151 3.184 1.322v12.029c-4.484-.235-8.553-2.024-11.688-4.847zm5.184 1.322c1.183-.17 2.269-.636 3.184-1.322l2.49 2.49c-1.045 1.346-1.674 3.03-1.674 4.862 0 1.772.583 3.45 1.645 4.831-1.81.678-3.7 1.066-5.645 1.166zm10.981 7.819-.41-.41c-.368-.368-.571-.858-.571-1.379 0-1.075.875-1.95 1.95-1.95.521 0 1.011.203 1.379.571l.404.404c-.815 1.008-1.735 1.935-2.752 2.764zm8.438 2.922 1.753 1.753-2.758 2.758-1.757-1.757c.994-.858 1.915-1.779 2.762-2.754zm-20.419 7.339c-13.785 0-25-11.215-25-25s11.215-25 25-25 25 11.215 25 25c0 7.362-3.186 14.231-8.761 18.996l-2.834-2.834c4.774-3.97 7.595-9.927 7.595-16.162 0-11.579-9.421-21-21-21s-21 9.421-21 21 9.421 21 21 21c2.822 0 5.55-.555 8.122-1.636l3.015 3.015c-3.441 1.714-7.262 2.621-11.137 2.621zm23 7.586c-.535.533-1.465.533-2 0l-3.586-3.586c-.267-.268-.414-.622-.414-1s.147-.732.414-1l2.652-2.652c-.029.216-.066.429-.066.652 0 2.757 2.243 5 5 5 .223 0 .436-.037.652-.066zm9.586-9.586-2.652 2.652c.029-.216.066-.429.066-.652 0-2.757-2.243-5-5-5-.223 0-.436.037-.652.066l2.652-2.652c.268-.267.622-.414 1-.414s.732.147 1 .414l3.586 3.586c.267.268.414.622.414 1s-.147.732-.414 1z"/><circle cx="53" cy="53" r="1"/></g></svg>