<?xml version="1.0" encoding="UTF-8"?>
<svg xmlns="http://www.w3.org/2000/svg" xmlns:xlink="http://www.w3.org/1999/xlink" width="24pt" height="24pt" viewBox="0 0 24 24" version="1.1">
<g id="surface1">
<path style=" stroke:none;fill-rule:nonzero;fill:rgb(0%,0%,0%);fill-opacity:1;" d="M 14.089844 20.699219 L 1.835938 20.699219 C 1.296875 20.699219 0.785156 20.457031 0.433594 20.039062 C 0.0820312 19.613281 -0.0664062 19.0625 0.0273438 18.515625 C 0.722656 14.597656 4.058594 11.753906 7.964844 11.753906 C 11.867188 11.753906 15.203125 14.597656 15.898438 18.515625 C 15.992188 19.0625 15.84375 19.613281 15.492188 20.039062 C 15.140625 20.457031 14.628906 20.699219 14.089844 20.699219 Z M 14.089844 20.699219 "/>
<path style=" stroke:none;fill-rule:nonzero;fill:rgb(0%,0%,0%);fill-opacity:1;" d="M 7.964844 10.347656 C 9.316406 10.347656 10.605469 10.6875 11.734375 11.300781 C 12.390625 10.460938 12.78125 9.398438 12.78125 8.246094 C 12.78125 5.53125 10.621094 3.328125 7.964844 3.328125 C 5.304688 3.328125 3.144531 5.53125 3.144531 8.246094 C 3.144531 9.398438 3.535156 10.460938 4.191406 11.300781 C 5.320312 10.6875 6.609375 10.347656 7.964844 10.347656 Z M 7.964844 10.347656 "/>
<path style=" stroke:none;fill-rule:nonzero;fill:rgb(0%,0%,0%);fill-opacity:1;" d="M 17.667969 8.808594 C 18.871094 8.808594 20.003906 9.148438 20.972656 9.746094 C 21.34375 9.136719 21.558594 8.421875 21.558594 7.660156 C 21.558594 5.472656 19.8125 3.691406 17.667969 3.691406 C 15.523438 3.691406 13.777344 5.472656 13.777344 7.660156 C 13.777344 8.425781 13.992188 9.140625 14.363281 9.746094 C 15.359375 9.132812 16.5 8.808594 17.667969 8.808594 Z M 17.667969 8.808594 "/>
<path style=" stroke:none;fill-rule:nonzero;fill:rgb(0%,0%,0%);fill-opacity:1;" d="M 23.964844 15.582031 C 23.414062 12.472656 20.765625 10.214844 17.667969 10.214844 C 16.457031 10.214844 15.28125 10.5625 14.261719 11.21875 C 13.867188 11.472656 13.5 11.769531 13.171875 12.101562 C 15.097656 13.417969 16.621094 15.347656 17.046875 17.457031 L 22.410156 17.457031 C 22.875 17.457031 23.316406 17.25 23.617188 16.890625 C 23.921875 16.527344 24.046875 16.050781 23.964844 15.582031 Z M 23.964844 15.582031 "/>
</g>
</svg>
