<svg width="178" height="35" viewBox="0 0 178 35" fill="none" xmlns="http://www.w3.org/2000/svg">
<path d="M21.0449 25.2627C21.0449 28.1527 19.9967 30.4062 17.9004 32.0234C15.804 33.6406 12.959 34.4492 9.36523 34.4492C5.47201 34.4492 2.47721 33.9476 0.380859 32.9443V29.2607C1.72852 29.8298 3.19596 30.279 4.7832 30.6084C6.37044 30.9378 7.94271 31.1025 9.5 31.1025C12.0456 31.1025 13.9622 30.6234 15.25 29.665C16.5378 28.6917 17.1816 27.3441 17.1816 25.6221C17.1816 24.484 16.9495 23.5557 16.4854 22.8369C16.0361 22.1032 15.2725 21.4294 14.1943 20.8154C13.1312 20.2015 11.5065 19.5052 9.32031 18.7266C6.26562 17.6335 4.07943 16.3382 2.76172 14.8408C1.45898 13.3434 0.807617 11.3893 0.807617 8.97852C0.807617 6.44792 1.75846 4.43392 3.66016 2.93652C5.56185 1.43913 8.07747 0.69043 11.207 0.69043C14.4714 0.69043 17.4736 1.28939 20.2139 2.4873L19.0234 5.81152C16.3132 4.6735 13.6777 4.10449 11.1172 4.10449C9.0957 4.10449 7.51595 4.53874 6.37793 5.40723C5.23991 6.27572 4.6709 7.48112 4.6709 9.02344C4.6709 10.1615 4.88053 11.0973 5.2998 11.8311C5.71908 12.5498 6.42285 13.2161 7.41113 13.8301C8.41439 14.429 9.94173 15.0954 11.9932 15.8291C15.4372 17.057 17.8031 18.3747 19.0908 19.7822C20.3936 21.1898 21.0449 23.0166 21.0449 25.2627ZM48.1364 34H29.8307V1.16211H48.1364V4.55371H33.6491V15.1328H47.2604V18.502H33.6491V30.5859H48.1364V34ZM76.0365 25.2627C76.0365 28.1527 74.9883 30.4062 72.892 32.0234C70.7956 33.6406 67.9505 34.4492 64.3568 34.4492C60.4636 34.4492 57.4688 33.9476 55.3724 32.9443V29.2607C56.7201 29.8298 58.1875 30.279 59.7748 30.6084C61.362 30.9378 62.9343 31.1025 64.4916 31.1025C67.0371 31.1025 68.9538 30.6234 70.2416 29.665C71.5293 28.6917 72.1732 27.3441 72.1732 25.6221C72.1732 24.484 71.9411 23.5557 71.4769 22.8369C71.0277 22.1032 70.264 21.4294 69.1859 20.8154C68.1227 20.2015 66.4981 19.5052 64.3119 18.7266C61.2572 17.6335 59.071 16.3382 57.7533 14.8408C56.4505 13.3434 55.7992 11.3893 55.7992 8.97852C55.7992 6.44792 56.75 4.43392 58.6517 2.93652C60.5534 1.43913 63.069 0.69043 66.1986 0.69043C69.4629 0.69043 72.4652 1.28939 75.2054 2.4873L74.015 5.81152C71.3047 4.6735 68.6693 4.10449 66.1087 4.10449C64.0873 4.10449 62.5075 4.53874 61.3695 5.40723C60.2315 6.27572 59.6625 7.48112 59.6625 9.02344C59.6625 10.1615 59.8721 11.0973 60.2914 11.8311C60.7106 12.5498 61.4144 13.2161 62.4027 13.8301C63.4059 14.429 64.9333 15.0954 66.9847 15.8291C70.4287 17.057 72.7946 18.3747 74.0824 19.7822C75.3851 21.1898 76.0365 23.0166 76.0365 25.2627ZM105.464 34L101.376 23.5557H88.2139L84.1709 34H80.3077L93.2901 1.02734H96.502L109.417 34H105.464ZM100.186 20.1191L96.3672 9.94434C95.8731 8.65658 95.364 7.07682 94.8399 5.20508C94.5105 6.64258 94.0388 8.22233 93.4248 9.94434L89.5616 20.1191H100.186ZM130.534 34L119.393 4.89062H119.214C119.423 7.19661 119.528 9.93685 119.528 13.1113V34H116.002V1.16211H121.752L132.151 28.25H132.331L142.82 1.16211H148.525V34H144.707V12.8418C144.707 10.416 144.812 7.7806 145.021 4.93555H144.842L133.611 34H130.534ZM177.93 34H159.624V1.16211H177.93V4.55371H163.443V15.1328H177.054V18.502H163.443V30.5859H177.93V34Z" fill="#25A0A1"/>
</svg>
