<svg width="160" height="12" viewBox="0 0 160 12" fill="none" xmlns="http://www.w3.org/2000/svg">
<path d="M6.92 1.604H5.804C5.852 1.856 5.876 2.156 5.912 2.612C5.924 2.888 5.936 3.296 5.948 3.776H1.58C1.208 3.776 0.824 3.74 0.476 3.704V4.724C0.848 4.7 1.196 4.688 1.604 4.688H5.552C4.604 6.128 2.468 8.12 0.032 9.308L0.728 10.088C2.876 8.948 4.976 7.004 5.972 5.588C5.996 7.196 6.008 8.984 6.008 9.944C6.008 10.268 5.912 10.424 5.564 10.424C5.12 10.424 4.448 10.376 3.872 10.28L3.956 11.264C4.544 11.312 5.252 11.336 5.876 11.336C6.596 11.336 6.968 11 6.968 10.376C6.956 8.876 6.92 6.488 6.884 4.688H8.792C9.08 4.688 9.5 4.7 9.776 4.712V3.704C9.536 3.728 9.068 3.776 8.756 3.776H6.872C6.86 3.296 6.848 2.888 6.848 2.612C6.848 2.276 6.872 1.94 6.92 1.604ZM12.764 5.804V6.98C13.136 6.944 13.772 6.92 14.432 6.92H21.02C21.56 6.92 22.064 6.968 22.304 6.98V5.804C22.04 5.828 21.608 5.864 21.008 5.864H14.432C13.76 5.864 13.124 5.828 12.764 5.804ZM33.0252 2.384C33.0252 1.94 33.3852 1.58 33.8172 1.58C34.2612 1.58 34.6212 1.94 34.6212 2.384C34.6212 2.816 34.2612 3.176 33.8172 3.176C33.3852 3.176 33.0252 2.816 33.0252 2.384ZM32.4732 2.384C32.4732 2.516 32.4972 2.648 32.5332 2.768C32.3892 2.78 32.2572 2.78 32.1492 2.78H26.1252C25.7292 2.78 25.2612 2.744 24.9252 2.696V3.764C25.2372 3.752 25.6452 3.728 26.1252 3.728H32.2572C32.1012 4.88 31.5372 6.548 30.6852 7.64C29.6892 8.924 28.3332 9.944 26.0052 10.52L26.8212 11.42C29.0292 10.736 30.4572 9.62 31.5492 8.216C32.4972 6.98 33.0852 5.048 33.3372 3.788C33.3492 3.74 33.3612 3.692 33.3612 3.656C33.5052 3.704 33.6612 3.728 33.8172 3.728C34.5612 3.728 35.1732 3.128 35.1732 2.384C35.1732 1.64 34.5612 1.028 33.8172 1.028C33.0732 1.028 32.4732 1.64 32.4732 2.384ZM38.6292 2.204L37.9452 2.936C38.8332 3.536 40.3332 4.82 40.9332 5.444L41.6892 4.688C41.0172 4.016 39.4812 2.768 38.6292 2.204ZM37.5972 10.244L38.2332 11.228C40.2372 10.856 41.7492 10.124 42.9492 9.368C44.7612 8.228 46.1652 6.596 46.9812 5.096L46.4052 4.076C45.7092 5.552 44.2452 7.328 42.3972 8.492C41.2572 9.2 39.6972 9.932 37.5972 10.244ZM52.1172 9.452C52.1172 10.64 52.5252 11.216 54.7572 11.216C56.2572 11.216 57.4572 11.132 58.5252 10.976L58.5732 9.944C57.3732 10.172 56.2212 10.292 54.8292 10.292C53.4012 10.292 53.0892 10.028 53.0892 9.2V5.624C55.2132 5.192 57.4212 4.748 57.6252 4.712C57.2652 5.432 56.3892 6.752 55.4892 7.568L56.3292 8.072C57.2892 7.076 58.2372 5.576 58.7892 4.58C58.8732 4.424 58.9932 4.22 59.0772 4.1L58.3692 3.548C58.2252 3.632 57.9972 3.704 57.7332 3.764C57.2292 3.872 55.1292 4.304 53.0892 4.7V2.828C53.0892 2.48 53.1132 2.072 53.1732 1.724H52.0332C52.0932 2.072 52.1172 2.468 52.1172 2.828V4.88C50.8452 5.12 49.7052 5.324 49.1652 5.396L49.3452 6.392C49.8372 6.284 50.9052 6.068 52.1172 5.816V9.452ZM69.6252 5.492V5.06H70.9452C71.4732 5.06 71.9172 5.084 72.0492 5.096V4.088C71.8812 4.112 71.4732 4.148 70.9452 4.148H69.6252V2.648C69.6252 2.18 69.6732 1.784 69.6852 1.664H68.6052C68.6292 1.784 68.6652 2.18 68.6652 2.648V4.148H65.2452V2.612C65.2452 2.192 65.2932 1.856 65.3052 1.736H64.2372C64.2732 2.012 64.2852 2.36 64.2852 2.612V4.148H62.9892C62.4852 4.148 61.8972 4.088 61.7892 4.064V5.108C61.9332 5.096 62.4732 5.06 62.9892 5.06H64.2852V7.004C64.2852 7.46 64.2492 7.976 64.2372 8.096H65.2932C65.2812 7.976 65.2452 7.448 65.2452 7.004V5.06H68.6652V5.564C68.6652 8.924 67.5732 9.956 65.3892 10.796L66.1932 11.552C68.9412 10.328 69.6252 8.684 69.6252 5.492ZM76.9692 1.916L76.6212 2.804C78.2772 3.02 81.4212 3.704 82.8852 4.232L83.2692 3.308C81.7572 2.78 78.5292 2.108 76.9692 1.916ZM76.4292 5.084L76.0692 5.984C77.7732 6.236 80.7012 6.896 82.0932 7.448L82.4772 6.524C80.9772 5.972 78.0732 5.36 76.4292 5.084ZM75.7692 8.576L75.3972 9.488C77.3412 9.8 80.9052 10.604 82.5012 11.3L82.9092 10.376C81.2652 9.716 77.7852 8.888 75.7692 8.576ZM107.413 2.132L106.465 2.396C106.549 2.708 106.645 2.996 106.741 3.284C107.521 7.736 106.501 10.628 103.741 10.628C102.517 10.628 101.401 10.052 101.401 8.36C101.401 5.9 103.225 3.788 103.993 3.236C104.161 3.152 104.473 3.068 104.629 3.02L104.353 2.168C103.645 2.432 101.617 2.72 100.549 2.768C100.333 2.78 100.081 2.78 99.9132 2.768L99.9852 3.776C100.225 3.74 100.429 3.704 100.657 3.68C101.089 3.62 102.085 3.5 102.697 3.404C101.629 4.592 100.453 6.32 100.453 8.564C100.453 10.544 101.833 11.6 103.717 11.6C107.041 11.6 107.953 8.72 107.701 5.696C108.157 6.596 108.685 7.376 109.333 8.06L109.957 7.208C108.181 5.624 107.665 3.584 107.413 2.132ZM115.165 1.592L114.925 2.504C115.837 2.756 118.441 3.284 119.581 3.44L119.809 2.516C118.753 2.42 116.197 1.916 115.165 1.592ZM114.901 3.776L113.893 3.644C113.821 4.904 113.521 7.424 113.281 8.516L114.169 8.732C114.241 8.54 114.349 8.336 114.529 8.132C115.369 7.124 116.665 6.524 118.249 6.524C119.473 6.524 120.361 7.208 120.361 8.168C120.361 9.812 118.513 10.904 114.721 10.436L115.009 11.42C119.473 11.792 121.369 10.34 121.369 8.192C121.369 6.788 120.145 5.684 118.309 5.684C116.869 5.684 115.549 6.14 114.397 7.148C114.529 6.38 114.733 4.592 114.901 3.776ZM132.817 1.64H131.701C131.737 1.832 131.785 2.084 131.809 2.36C131.833 2.66 131.869 3.464 131.881 4.22C131.377 4.244 130.861 4.256 130.369 4.256C129.721 4.256 128.953 4.208 128.437 4.124V5.084C128.953 5.12 129.805 5.156 130.381 5.156C130.873 5.156 131.389 5.144 131.905 5.12C131.905 5.264 131.905 5.384 131.905 5.492C131.905 7.796 131.833 9.152 130.549 10.28C130.261 10.568 129.769 10.868 129.385 11.024L130.261 11.708C132.805 10.208 132.805 8.252 132.805 5.492C132.805 5.384 132.805 5.24 132.805 5.072C133.525 5.024 134.197 4.952 134.749 4.868V3.884C134.185 4.016 133.501 4.1 132.793 4.16C132.781 3.416 132.769 2.612 132.781 2.348C132.781 2.084 132.793 1.844 132.817 1.64ZM126.745 1.82L125.629 1.712C125.629 1.928 125.617 2.24 125.569 2.516C125.425 3.512 125.113 5.36 125.113 7.304C125.113 8.816 125.509 10.376 125.749 11.108L126.565 11.012C126.553 10.892 126.541 10.724 126.529 10.604C126.517 10.472 126.541 10.244 126.589 10.064C126.721 9.476 127.081 8.252 127.369 7.412L126.853 7.1C126.625 7.7 126.373 8.432 126.205 8.936C125.749 6.968 126.157 4.34 126.541 2.6C126.601 2.372 126.685 2.048 126.745 1.82ZM145.033 1.1L144.385 1.376C144.685 1.796 145.105 2.492 145.333 2.996L146.005 2.696C145.765 2.24 145.321 1.508 145.033 1.1ZM146.557 0.752L145.897 1.028C146.221 1.448 146.605 2.132 146.869 2.624L147.541 2.336C147.289 1.88 146.845 1.16 146.557 0.752ZM138.061 3.128V4.196C138.337 4.184 138.925 4.16 139.381 4.16H145.129V9.824H139.237C138.733 9.824 138.205 9.788 137.905 9.752V10.844C138.229 10.82 138.769 10.796 139.261 10.796H145.129C145.117 11.084 145.105 11.336 145.105 11.468H146.185C146.173 11.276 146.137 10.736 146.137 10.304V4.112C146.137 3.824 146.161 3.452 146.173 3.176C145.933 3.188 145.573 3.2 145.273 3.2H139.369C138.985 3.2 138.457 3.176 138.061 3.128ZM159.913 3.392L159.157 2.78C158.989 2.84 158.713 2.876 158.377 2.876H151.225C150.805 2.876 150.337 2.828 150.001 2.78V3.86C150.241 3.836 150.757 3.788 151.225 3.788H158.281C157.681 4.868 156.301 6.632 154.537 7.952C153.721 7.22 152.737 6.416 152.293 6.092L151.513 6.728C152.149 7.172 153.541 8.372 154.261 9.092C155.017 9.872 155.977 10.928 156.421 11.54L157.297 10.844C156.817 10.256 155.965 9.356 155.245 8.636C157.225 7.124 158.749 5.168 159.613 3.764C159.685 3.656 159.793 3.524 159.913 3.392Z" fill="#25A0A1"/>
</svg>
