<svg width="19" height="19" viewBox="0 0 19 19" fill="none" xmlns="http://www.w3.org/2000/svg">
<path d="M14.0423 10.9421C14.0285 11.1507 13.9856 11.3593 13.8956 11.561C13.4832 12.4858 12.3942 12.8981 11.4636 12.483C10.533 12.0679 10.1114 10.9818 10.5239 10.0571C10.8543 9.31645 11.6191 8.91312 12.3889 8.99156L12.2942 3.82312L8.38528 7.20577C8.9579 7.72608 9.16882 8.56466 8.83846 9.30528C8.42599 10.23 7.33705 10.6423 6.40645 10.2272C5.47586 9.81214 5.05425 8.72607 5.46673 7.80133C5.55669 7.59964 5.68327 7.42834 5.82843 7.27837L3.91451 5.2437C3.8151 5.13816 3.6378 5.18249 3.6017 5.32191L1.6223 12.9425C1.59901 13.0285 1.64364 13.1196 1.72566 13.1562L12.4108 17.9223C12.4936 17.9592 12.5904 17.9312 12.6396 17.8568L16.9874 11.2926C17.067 11.1725 16.9815 11.011 16.8366 11.0076L14.0423 10.9421Z" fill="#FAC756"/>
</svg>
