<?xml version="1.0" encoding="utf-8"?>
<!-- Generator: Adobe Illustrator 23.0.3, SVG Export Plug-In . SVG Version: 6.00 Build 0)  -->
<svg version="1.1" id="Layer_1" xmlns="http://www.w3.org/2000/svg" xmlns:xlink="http://www.w3.org/1999/xlink" x="0px" y="0px"
	 viewBox="0 0 50 50" style="enable-background:new 0 0 50 50;" xml:space="preserve">
<style type="text/css">
	.st0{fill:#2980B9;}
	.st1{fill:#037CC6;}
	.st2{fill:#9B59B6;}
	.st3{fill:#27AE60;}
	.st4{fill:#E74C3C;}
	.st5{fill:#34495E;}
	.st6{fill:#D35400;}
	.st7{fill:#E22D2D;}
	.st8{fill:#1ABC9C;}
	.st9{fill:#F39C12;}
	.st10{fill:#E67E22;}
	.st11{fill:url(#SVGID_1_);}
	.st12{fill:url(#SVGID_2_);}
	.st13{fill:url(#SVGID_3_);}
	.st14{fill:url(#SVGID_4_);}
	.st15{fill:url(#SVGID_5_);}
	.st16{fill:url(#SVGID_6_);}
	.st17{fill:url(#SVGID_7_);}
	.st18{fill:url(#SVGID_8_);}
	.st19{fill:url(#SVGID_9_);}
	.st20{fill:url(#SVGID_10_);}
	.st21{fill:url(#SVGID_11_);}
	.st22{fill:url(#SVGID_12_);}
	.st23{fill:url(#SVGID_13_);}
	.st24{fill:url(#SVGID_14_);}
	.st25{fill:url(#SVGID_15_);}
	.st26{fill:url(#SVGID_16_);}
	.st27{fill:url(#SVGID_17_);}
	.st28{fill:url(#SVGID_18_);}
	.st29{fill:url(#SVGID_19_);}
	.st30{fill:url(#SVGID_20_);}
	.st31{fill:url(#SVGID_21_);}
	.st32{fill:url(#SVGID_22_);}
	.st33{fill:url(#SVGID_23_);}
	.st34{fill:url(#SVGID_24_);}
	.st35{fill:url(#SVGID_25_);}
	.st36{fill:url(#SVGID_26_);}
	.st37{fill:url(#SVGID_27_);}
	.st38{fill:url(#SVGID_28_);}
	.st39{fill:url(#SVGID_29_);}
	.st40{fill:url(#SVGID_30_);}
	.st41{fill:url(#SVGID_31_);}
	.st42{fill:url(#SVGID_32_);}
	.st43{fill:#0C0C0C;}
	.st44{fill:none;stroke:#0C0C0C;stroke-width:2;stroke-linecap:round;stroke-linejoin:round;stroke-miterlimit:10;}
	.st45{fill:#FFFFFF;stroke:#0C0C0C;stroke-width:2;stroke-linecap:round;stroke-linejoin:round;stroke-miterlimit:10;}
	.st46{fill:#FB0101;}
	.st47{fill:url(#SVGID_33_);}
	.st48{fill:url(#SVGID_34_);}
	.st49{fill:#403D3D;}
	.st50{fill:#926DDE;}
	.st51{fill:#33CABB;}
</style>
<g>
	<g>
		<path class="st43" d="M25.2,47.9c-11.3,0-20.5-9.2-20.5-20.5S13.8,6.9,25.2,6.9s20.5,9.2,20.5,20.5S36.5,47.9,25.2,47.9z
			 M25.2,8.9c-10.2,0-18.5,8.3-18.5,18.5s8.3,18.5,18.5,18.5s18.5-8.3,18.5-18.5S35.4,8.9,25.2,8.9z"/>
		<path class="st43" d="M25.2,37.6c-0.6,0-1-0.4-1-1V22c0-0.6,0.4-1,1-1s1,0.4,1,1v14.5C26.2,37.1,25.7,37.6,25.2,37.6z"/>
		<path class="st43" d="M32.9,29.6c-0.3,0-0.5-0.1-0.7-0.3L25,22.2l-6.9,6.9c-0.4,0.4-1,0.4-1.4,0s-0.4-1,0-1.4l7.6-7.6
			c0.4-0.4,1-0.4,1.4,0l7.9,7.9c0.4,0.4,0.4,1,0,1.4C33.4,29.6,33.1,29.6,32.9,29.6z"/>
	</g>
</g>
</svg>
