<?xml version="1.0" encoding="UTF-8"?>
<svg xmlns="http://www.w3.org/2000/svg" xmlns:xlink="http://www.w3.org/1999/xlink" width="24pt" height="24pt" viewBox="0 0 24 24" version="1.1">
<g id="surface1">
<path style=" stroke:none;fill-rule:nonzero;fill:rgb(0%,0%,0%);fill-opacity:1;" d="M 3.519531 0 L 0.707031 0 C 0.316406 0 0.00390625 0.316406 0.00390625 0.703125 L 0.00390625 3.5625 C 0.00390625 3.949219 0.316406 4.265625 0.707031 4.265625 C 1.09375 4.265625 1.410156 3.949219 1.410156 3.5625 L 1.410156 1.40625 L 3.519531 1.40625 C 3.90625 1.40625 4.222656 1.089844 4.222656 0.703125 C 4.222656 0.316406 3.90625 0 3.519531 0 Z M 3.519531 0 "/>
<path style=" stroke:none;fill-rule:nonzero;fill:rgb(0%,0%,0%);fill-opacity:1;" d="M 23.292969 0 L 20.480469 0 C 20.09375 0 19.777344 0.316406 19.777344 0.703125 C 19.777344 1.089844 20.09375 1.40625 20.480469 1.40625 L 22.589844 1.40625 L 22.589844 3.5625 C 22.589844 3.949219 22.90625 4.265625 23.292969 4.265625 C 23.683594 4.265625 23.996094 3.949219 23.996094 3.5625 L 23.996094 0.703125 C 23.996094 0.316406 23.683594 0 23.292969 0 Z M 23.292969 0 "/>
<path style=" stroke:none;fill-rule:nonzero;fill:rgb(0%,0%,0%);fill-opacity:1;" d="M 3.519531 22.585938 L 1.410156 22.585938 L 1.410156 20.433594 C 1.410156 20.042969 1.09375 19.730469 0.707031 19.730469 C 0.316406 19.730469 0.00390625 20.042969 0.00390625 20.433594 L 0.00390625 23.289062 C 0.00390625 23.679688 0.316406 23.992188 0.707031 23.992188 L 3.519531 23.992188 C 3.90625 23.992188 4.222656 23.679688 4.222656 23.289062 C 4.222656 22.902344 3.90625 22.585938 3.519531 22.585938 Z M 3.519531 22.585938 "/>
<path style=" stroke:none;fill-rule:nonzero;fill:rgb(0%,0%,0%);fill-opacity:1;" d="M 23.292969 19.730469 C 22.90625 19.730469 22.589844 20.042969 22.589844 20.433594 L 22.589844 22.585938 L 20.480469 22.585938 C 20.09375 22.585938 19.777344 22.902344 19.777344 23.289062 C 19.777344 23.679688 20.09375 23.992188 20.480469 23.992188 L 23.292969 23.992188 C 23.683594 23.992188 23.996094 23.679688 23.996094 23.289062 L 23.996094 20.433594 C 23.996094 20.042969 23.683594 19.730469 23.292969 19.730469 Z M 23.292969 19.730469 "/>
<path style=" stroke:none;fill-rule:nonzero;fill:rgb(0%,0%,0%);fill-opacity:1;" d="M 22.140625 5.765625 L 12.351562 0.09375 C 12.132812 -0.03125 11.867188 -0.03125 11.648438 0.09375 L 1.855469 5.765625 C 1.636719 5.890625 1.503906 6.125 1.503906 6.375 C 1.503906 6.375 1.503906 6.378906 1.503906 6.378906 L 1.503906 17.625 C 1.503906 17.878906 1.640625 18.113281 1.859375 18.238281 L 11.648438 23.90625 C 11.753906 23.964844 11.878906 24 12 24 C 12.125 24 12.25 23.964844 12.351562 23.90625 L 22.136719 18.238281 C 22.136719 18.238281 22.136719 18.234375 22.140625 18.234375 C 22.367188 18.070312 22.488281 17.933594 22.492188 17.632812 C 22.492188 17.628906 22.492188 17.628906 22.492188 17.625 L 22.492188 6.378906 C 22.492188 6.378906 22.492188 6.375 22.492188 6.375 C 22.492188 6.125 22.359375 5.890625 22.140625 5.765625 Z M 11.296875 22.078125 L 3.617188 17.628906 L 9.539062 14.234375 C 9.875 14.039062 9.992188 13.609375 9.796875 13.273438 C 9.605469 12.9375 9.175781 12.820312 8.839844 13.011719 L 2.910156 16.410156 L 2.910156 7.589844 L 11.296875 12.40625 Z M 12 11.1875 L 3.617188 6.371094 L 12 1.515625 L 20.382812 6.371094 Z M 21.089844 16.410156 L 15.160156 13.011719 C 14.824219 12.820312 14.394531 12.9375 14.203125 13.273438 C 14.007812 13.609375 14.125 14.039062 14.460938 14.234375 L 20.382812 17.628906 L 12.703125 22.078125 L 12.703125 12.40625 L 21.089844 7.589844 Z M 21.089844 16.410156 "/>
</g>
</svg>
