<?xml version="1.0" encoding="UTF-8"?>
<svg xmlns="http://www.w3.org/2000/svg" xmlns:xlink="http://www.w3.org/1999/xlink" width="24pt" height="24pt" viewBox="0 0 24 24" version="1.1">
<g id="surface1">
<path style=" stroke:none;fill-rule:nonzero;fill:rgb(0%,0%,0%);fill-opacity:1;" d="M 23.964844 15.558594 C 23.570312 13.328125 22.089844 11.535156 20.136719 10.707031 C 21.003906 9.980469 21.558594 8.878906 21.558594 7.652344 C 21.558594 5.46875 19.8125 3.691406 17.667969 3.691406 C 15.523438 3.691406 13.777344 5.46875 13.777344 7.652344 C 13.777344 8.878906 14.332031 9.980469 15.199219 10.707031 C 14.875 10.84375 14.5625 11.011719 14.261719 11.203125 C 13.507812 11.6875 12.863281 12.324219 12.367188 13.070312 C 11.863281 12.734375 11.320312 12.453125 10.746094 12.242188 C 11.976562 11.351562 12.78125 9.886719 12.78125 8.234375 C 12.78125 5.527344 10.621094 3.328125 7.960938 3.328125 C 5.304688 3.328125 3.144531 5.527344 3.144531 8.234375 C 3.144531 9.886719 3.949219 11.351562 5.179688 12.242188 C 2.558594 13.222656 0.550781 15.550781 0.0273438 18.488281 C -0.0664062 19.03125 0.0820312 19.582031 0.433594 20.003906 C 0.785156 20.425781 1.296875 20.664062 1.835938 20.664062 L 14.089844 20.664062 C 14.628906 20.664062 15.140625 20.425781 15.492188 20.003906 C 15.84375 19.582031 15.992188 19.03125 15.898438 18.488281 C 15.832031 18.125 15.746094 17.773438 15.636719 17.429688 L 22.410156 17.429688 C 22.875 17.429688 23.316406 17.222656 23.617188 16.863281 C 23.921875 16.5 24.046875 16.023438 23.964844 15.558594 Z M 15.183594 7.652344 C 15.183594 6.242188 16.296875 5.097656 17.667969 5.097656 C 19.039062 5.097656 20.152344 6.242188 20.152344 7.652344 C 20.152344 9.058594 19.039062 10.203125 17.667969 10.203125 C 16.296875 10.203125 15.183594 9.058594 15.183594 7.652344 Z M 4.550781 8.234375 C 4.550781 6.304688 6.082031 4.734375 7.960938 4.734375 C 9.84375 4.734375 11.375 6.304688 11.375 8.234375 C 11.375 10.167969 9.84375 11.738281 7.960938 11.738281 C 6.082031 11.738281 4.550781 10.167969 4.550781 8.234375 Z M 14.414062 19.101562 C 14.367188 19.160156 14.257812 19.257812 14.089844 19.257812 L 1.835938 19.257812 C 1.667969 19.257812 1.558594 19.160156 1.511719 19.101562 C 1.460938 19.042969 1.378906 18.914062 1.414062 18.734375 C 1.988281 15.496094 4.742188 13.144531 7.960938 13.144531 C 11.183594 13.144531 13.9375 15.496094 14.511719 18.734375 C 14.546875 18.914062 14.464844 19.042969 14.414062 19.101562 Z M 22.539062 15.960938 C 22.519531 15.984375 22.476562 16.023438 22.410156 16.023438 L 15.046875 16.023438 C 14.632812 15.246094 14.097656 14.546875 13.46875 13.949219 C 14.386719 12.492188 15.949219 11.609375 17.667969 11.609375 C 20.082031 11.609375 22.148438 13.375 22.582031 15.804688 C 22.59375 15.882812 22.5625 15.9375 22.539062 15.960938 Z M 22.539062 15.960938 "/>
</g>
</svg>
