<svg width="33" height="33" viewBox="0 0 33 33" fill="none" xmlns="http://www.w3.org/2000/svg">
<circle cx="16.5" cy="16.5" r="16.5" fill="#EAEAEA"/>
<path d="M10.375 19L9.66406 17.1836H7.375L6.67188 19H6L8.25781 13.2656H8.81641L11.0625 19H10.375ZM9.45703 16.5859L8.79297 14.8164C8.70703 14.5924 8.61849 14.3177 8.52734 13.9922C8.47005 14.2422 8.38802 14.5169 8.28125 14.8164L7.60938 16.5859H9.45703ZM16.0002 13.2891V16.9844C16.0002 17.6354 15.8035 18.1471 15.4103 18.5195C15.0171 18.8919 14.4767 19.0781 13.7892 19.0781C13.1017 19.0781 12.5692 18.8906 12.1916 18.5156C11.8166 18.1406 11.6291 17.625 11.6291 16.9688V13.2891H12.2931V17.0156C12.2931 17.4922 12.4233 17.8581 12.6838 18.1133C12.9442 18.3685 13.327 18.4961 13.8322 18.4961C14.314 18.4961 14.6851 18.3685 14.9455 18.1133C15.2059 17.8555 15.3361 17.487 15.3361 17.0078V13.2891H16.0002ZM19.1136 19H18.4495V13.8789H16.6409V13.2891H20.9222V13.8789H19.1136V19ZM26.5825 16.1367C26.5825 17.0508 26.3507 17.7695 25.8872 18.293C25.4263 18.8164 24.7843 19.0781 23.9614 19.0781C23.1203 19.0781 22.4705 18.8216 22.0122 18.3086C21.5565 17.793 21.3286 17.0664 21.3286 16.1289C21.3286 15.1992 21.5578 14.4792 22.0161 13.9688C22.4744 13.4557 23.1255 13.1992 23.9692 13.1992C24.7895 13.1992 25.4302 13.4596 25.8911 13.9805C26.352 14.5013 26.5825 15.2201 26.5825 16.1367ZM22.0317 16.1367C22.0317 16.9102 22.1958 17.4974 22.5239 17.8984C22.8546 18.2969 23.3338 18.4961 23.9614 18.4961C24.5942 18.4961 25.0721 18.2969 25.395 17.8984C25.7179 17.5 25.8794 16.9128 25.8794 16.1367C25.8794 15.3685 25.7179 14.7865 25.395 14.3906C25.0747 13.9922 24.5994 13.793 23.9692 13.793C23.3364 13.793 22.8546 13.9935 22.5239 14.3945C22.1958 14.793 22.0317 15.3737 22.0317 16.1367Z" fill="#787373"/>
</svg>
