<?xml version="1.0" encoding="UTF-8"?>
<svg xmlns="http://www.w3.org/2000/svg" xmlns:xlink="http://www.w3.org/1999/xlink" width="24pt" height="24pt" viewBox="0 0 24 24" version="1.1">
<g id="surface1">
<path style=" stroke:none;fill-rule:nonzero;fill:rgb(0%,0%,0%);fill-opacity:1;" d="M 21.40625 0 L 18.046875 0 C 17.660156 0 17.34375 0.316406 17.34375 0.703125 C 17.34375 1.089844 17.660156 1.40625 18.046875 1.40625 L 21.40625 1.40625 C 22.0625 1.40625 22.59375 1.9375 22.59375 2.59375 L 22.59375 5.953125 C 22.59375 6.339844 22.910156 6.65625 23.296875 6.65625 C 23.683594 6.65625 24 6.339844 24 5.953125 L 24 2.59375 C 24 1.164062 22.835938 0 21.40625 0 Z M 21.40625 0 "/>
<path style=" stroke:none;fill-rule:nonzero;fill:rgb(0%,0%,0%);fill-opacity:1;" d="M 0.703125 6.65625 C 1.089844 6.65625 1.40625 6.339844 1.40625 5.953125 L 1.40625 2.59375 C 1.40625 1.9375 1.9375 1.40625 2.59375 1.40625 L 5.953125 1.40625 C 6.339844 1.40625 6.65625 1.089844 6.65625 0.703125 C 6.65625 0.316406 6.339844 0 5.953125 0 L 2.59375 0 C 1.164062 0 0 1.164062 0 2.59375 L 0 5.953125 C 0 6.339844 0.316406 6.65625 0.703125 6.65625 Z M 0.703125 6.65625 "/>
<path style=" stroke:none;fill-rule:nonzero;fill:rgb(0%,0%,0%);fill-opacity:1;" d="M 5.953125 22.59375 L 2.59375 22.59375 C 1.9375 22.59375 1.40625 22.0625 1.40625 21.40625 L 1.40625 18.046875 C 1.40625 17.660156 1.089844 17.34375 0.703125 17.34375 C 0.316406 17.34375 0 17.660156 0 18.046875 L 0 21.40625 C 0 22.835938 1.164062 24 2.59375 24 L 5.953125 24 C 6.339844 24 6.65625 23.683594 6.65625 23.296875 C 6.65625 22.910156 6.339844 22.59375 5.953125 22.59375 Z M 5.953125 22.59375 "/>
<path style=" stroke:none;fill-rule:nonzero;fill:rgb(0%,0%,0%);fill-opacity:1;" d="M 23.296875 17.34375 C 22.910156 17.34375 22.59375 17.660156 22.59375 18.046875 L 22.59375 21.40625 C 22.59375 22.0625 22.0625 22.59375 21.40625 22.59375 L 18.046875 22.59375 C 17.660156 22.59375 17.34375 22.910156 17.34375 23.296875 C 17.34375 23.683594 17.660156 24 18.046875 24 L 21.40625 24 C 22.835938 24 24 22.835938 24 21.40625 L 24 18.046875 C 24 17.660156 23.683594 17.34375 23.296875 17.34375 Z M 23.296875 17.34375 "/>
<path style=" stroke:none;fill-rule:nonzero;fill:rgb(0%,0%,0%);fill-opacity:1;" d="M 16.015625 5.15625 L 18.246094 5.15625 C 18.550781 5.15625 18.796875 5.402344 18.796875 5.707031 L 18.796875 7.9375 C 18.796875 8.328125 19.113281 8.640625 19.5 8.640625 C 19.886719 8.640625 20.203125 8.328125 20.203125 7.9375 L 20.203125 5.707031 C 20.203125 4.628906 19.324219 3.75 18.246094 3.75 L 16.015625 3.75 C 15.625 3.75 15.3125 4.066406 15.3125 4.453125 C 15.3125 4.839844 15.625 5.15625 16.015625 5.15625 Z M 16.015625 5.15625 "/>
<path style=" stroke:none;fill-rule:nonzero;fill:rgb(0%,0%,0%);fill-opacity:1;" d="M 3.796875 5.707031 L 3.796875 7.9375 C 3.796875 8.328125 4.113281 8.640625 4.5 8.640625 C 4.886719 8.640625 5.203125 8.328125 5.203125 7.9375 L 5.203125 5.707031 C 5.203125 5.402344 5.449219 5.15625 5.753906 5.15625 L 7.984375 5.15625 C 8.375 5.15625 8.6875 4.839844 8.6875 4.453125 C 8.6875 4.066406 8.375 3.75 7.984375 3.75 L 5.753906 3.75 C 4.675781 3.75 3.796875 4.628906 3.796875 5.707031 Z M 3.796875 5.707031 "/>
<path style=" stroke:none;fill-rule:nonzero;fill:rgb(0%,0%,0%);fill-opacity:1;" d="M 7.984375 18.75 L 5.753906 18.75 C 5.449219 18.75 5.203125 18.503906 5.203125 18.199219 L 5.203125 15.96875 C 5.203125 15.578125 4.886719 15.265625 4.5 15.265625 C 4.113281 15.265625 3.796875 15.578125 3.796875 15.96875 L 3.796875 18.199219 C 3.796875 19.277344 4.675781 20.15625 5.753906 20.15625 L 7.984375 20.15625 C 8.375 20.15625 8.6875 19.839844 8.6875 19.453125 C 8.6875 19.066406 8.375 18.75 7.984375 18.75 Z M 7.984375 18.75 "/>
<path style=" stroke:none;fill-rule:nonzero;fill:rgb(0%,0%,0%);fill-opacity:1;" d="M 20.203125 18.199219 L 20.203125 15.96875 C 20.203125 15.578125 19.886719 15.265625 19.5 15.265625 C 19.113281 15.265625 18.796875 15.578125 18.796875 15.96875 L 18.796875 18.199219 C 18.796875 18.503906 18.550781 18.75 18.246094 18.75 L 16.015625 18.75 C 15.625 18.75 15.3125 19.066406 15.3125 19.453125 C 15.3125 19.839844 15.625 20.15625 16.015625 20.15625 L 18.246094 20.15625 C 19.324219 20.15625 20.203125 19.277344 20.203125 18.199219 Z M 20.203125 18.199219 "/>
<path style=" stroke:none;fill-rule:nonzero;fill:rgb(0%,0%,0%);fill-opacity:1;" d="M 0.046875 12 C 0.046875 12.386719 0.363281 12.703125 0.75 12.703125 L 23.25 12.703125 C 23.636719 12.703125 23.953125 12.386719 23.953125 12 C 23.953125 11.613281 23.636719 11.296875 23.25 11.296875 L 0.75 11.296875 C 0.363281 11.296875 0.046875 11.613281 0.046875 12 Z M 0.046875 12 "/>
</g>
</svg>
