<?xml version="1.0" encoding="UTF-8"?>
<svg xmlns="http://www.w3.org/2000/svg" xmlns:xlink="http://www.w3.org/1999/xlink" width="25pt" height="25pt" viewBox="0 0 25 25" version="1.1">
<g id="surface1">
<path style=" stroke:none;fill-rule:evenodd;fill:rgb(11.372549%,11.372549%,11.372549%);fill-opacity:1;" d="M 12.5 0 C 5.601562 0 0 5.601562 0 12.5 C 0 19.398438 5.601562 25 12.5 25 C 19.398438 25 25 19.398438 25 12.5 C 25 5.601562 19.398438 0 12.5 0 Z M 12.5 13.75 C 11.8125 13.75 11.25 13.1875 11.25 12.5 L 11.25 7.5 C 11.25 6.8125 11.8125 6.25 12.5 6.25 C 13.1875 6.25 13.75 6.8125 13.75 7.5 L 13.75 12.5 C 13.75 13.1875 13.1875 13.75 12.5 13.75 Z M 13.75 18.75 L 11.25 18.75 L 11.25 16.25 L 13.75 16.25 Z M 13.75 18.75 "/>
</g>
</svg>
