<?xml version="1.0" encoding="UTF-8"?>
<svg width="24" height="24" viewBox="0 0 1024 1024" version="1.1" xmlns="http://www.w3.org/2000/svg">
    <g fill="#000000">
        <path d="M512,63.6C264.8,63.6 63.6,264.8 63.6,512S264.7,960.3 512,960.3 960.4,759.2 960.4,512c0,-247.2 -201.2,-448.4 -448.4,-448.4zM512,888.6c-207.7,0 -376.6,-168.9 -376.6,-376.6 0,-207.7 168.9,-376.6 376.6,-376.6s376.6,169 376.6,376.6c0,207.7 -168.9,376.6 -376.6,376.6z"/>
        <path d="M705.3,341c-1.5,-1.5 -3,-1.9 -3.4,-1.7L439.8,601.7 323.1,485.1c-0.6,-0.7 -1.5,-1.1 -2.4,-1.1 -1.5,0 -2.1,0.7 -2.2,0.9l-37.2,37.2c-0.7,0.6 -1.1,1.5 -1.1,2.4 0,0.7 0.4,1.7 1.1,2.2l156.2,156.4c1.3,1.3 3,1.7 3.4,1.5L744,381.4c0,-0.6 -0.2,-2.1 -1.7,-3.4l-37,-37z"/>
    </g>
</svg>
