<?xml version="1.0" standalone="no"?><!DOCTYPE svg PUBLIC "-//W3C//DTD SVG 1.1//EN" "http://www.w3.org/Graphics/SVG/1.1/DTD/svg11.dtd"><svg t="1716547964464" class="icon" viewBox="0 0 1024 1024" version="1.1" xmlns="http://www.w3.org/2000/svg" p-id="6050" width="24" height="24" xmlns:xlink="http://www.w3.org/1999/xlink"><path d="M327.80288 524.20608c-30.14656-35.67616-54.55872-102.4-54.55872-149.0944v-70.0416c0-90.5216 73.5232-163.84 163.84-163.84 90.48064 0 163.84 73.44128 163.84 163.84v70.0416c0 46.6944-24.576 113.58208-54.55872 149.17632l-14.82752 17.53088c-24.1664 28.672-16.5888 65.08544 17.2032 81.5104l231.8336 113.13152c25.1904 12.288 45.62944 44.76928 45.62944 73.07264v28.09856c0 22.56896-18.47296 40.87808-41.04192 40.87808H88.96512a40.87808 40.87808 0 0 1-41.00096-40.87808v-28.09856c0-28.0576 20.39808-60.78464 45.62944-73.07264l231.8336-113.17248c33.62816-16.384 41.45152-52.71552 17.2032-81.5104l-14.82752-17.57184z m508.64128-65.536h112.64v61.44h-112.64v112.64h-61.44v-112.64h-112.64v-61.44h112.64v-112.64h61.44v112.64z" fill="#ffffff" fill-opacity=".9" p-id="6051"></path></svg>