<svg xmlns="http://www.w3.org/2000/svg" width="24" height="24" viewBox="0 0 24 24">
    <path d="M18.8,19.8L18.8,19.3155C18.8,19.0861 18.5647,18.71 18.3598,18.6101L12.6995,15.849C11.1729,15.1044 10.7956,13.3029 11.8893,12.0064L12.2509,11.5778C12.8022,10.9243 13.3,9.5644 13.3,8.7102L13.3,7.0002C13.3,5.4549 12.0456,4.2 10.5,4.2C8.9563,4.2 7.7,5.4552 7.7,6.9996L7.7,8.7093C7.7,9.5657 8.1957,10.9205 8.7491,11.5763L9.1106,12.0048C10.2066,13.3039 9.8252,15.1037 8.3007,15.8476L2.6404,18.6098C2.437,18.709 2.2,19.0887 2.2,19.3155L2.2,19.8L18.8,19.8ZM1,20L1,19.3155C1,18.6304 1.4982,17.8319 2.1141,17.5313L7.7745,14.7691C8.5954,14.3685 8.7863,13.4813 8.1934,12.7786L7.8319,12.3501C7.0963,11.4783 6.5,9.8495 6.5,8.7093L6.5,6.9996C6.5,4.7907 8.2954,3 10.5,3C12.7091,3 14.5,4.793 14.5,7.0002L14.5,8.7102C14.5,9.8493 13.9009,11.4829 13.1681,12.3516L12.8066,12.7801C12.217,13.479 12.4012,14.3684 13.2255,14.7705L18.8859,17.5316C19.5012,17.8317 20,18.6252 20,19.3155L20,20C20,20.5523 19.5523,21 19,21L2,21C1.4477,21 1,20.5523 1,20ZM20,14.5L23,14.5L23,15.7L20,15.7L20,14.5ZM18,11.5L23,11.5L23,12.7L18,12.7L18,11.5ZM16,8.5L23,8.5L23,9.7L16,9.7L16,8.5Z"/>
</svg>
