<?xml version="1.0" standalone="no"?><!DOCTYPE svg PUBLIC "-//W3C//DTD SVG 1.1//EN" "http://www.w3.org/Graphics/SVG/1.1/DTD/svg11.dtd"><svg class="icon" width="50.00px" height="50.00px" viewBox="0 0 1024 1024" version="1.1" xmlns="http://www.w3.org/2000/svg"><path fill="#e6e6e6" d="M457.856 112.128a42.666667 42.666667 0 0 1 3.818667 46.08A297.152 297.152 0 0 0 426.666667 298.666667c0 164.949333 133.717333 298.666667 298.666666 298.666666a297.173333 297.173333 0 0 0 140.458667-34.986666 42.666667 42.666667 0 0 1 61.632 47.36C883.2 798.250667 714.069333 938.666667 512 938.666667 276.352 938.666667 85.333333 747.648 85.333333 512 85.333333 309.930667 225.749333 140.8 414.293333 96.576a42.666667 42.666667 0 0 1 43.562667 15.552z m-106.389333 98.56C243.882667 268.138667 170.666667 381.568 170.666667 512c0 188.522667 152.810667 341.333333 341.333333 341.333333 130.453333 0 243.861333-73.194667 301.312-180.8C785.066667 679.146667 755.584 682.666667 725.333333 682.666667c-212.074667 0-384-171.925333-384-384 0-30.250667 3.498667-59.712 10.133334-87.978667z"  /><path fill="#e6e6e6" d="M618.666667 128h213.333333a42.666667 42.666667 0 0 1 33.322667 69.333333l-115.2 144H874.666667v85.333334H661.333333a42.666667 42.666667 0 0 1-33.322666-69.333334l115.2-144H618.666667V128z"  /></svg>