<svg width="21" height="7" viewBox="0 0 21 7" fill="none" xmlns="http://www.w3.org/2000/svg">
<path d="M4.375 6L3.66406 4.18359H1.375L0.671875 6H0L2.25781 0.265625H2.81641L5.0625 6H4.375ZM3.45703 3.58594L2.79297 1.81641C2.70703 1.59245 2.61849 1.31771 2.52734 0.992188C2.47005 1.24219 2.38802 1.51693 2.28125 1.81641L1.60938 3.58594H3.45703ZM10.0002 0.289062V3.98438C10.0002 4.63542 9.80354 5.14714 9.41031 5.51953C9.01708 5.89193 8.47672 6.07812 7.78922 6.07812C7.10172 6.07812 6.56917 5.89062 6.19156 5.51562C5.81656 5.14062 5.62906 4.625 5.62906 3.96875V0.289062H6.29313V4.01562C6.29313 4.49219 6.42333 4.85807 6.68375 5.11328C6.94417 5.36849 7.32698 5.49609 7.83219 5.49609C8.31396 5.49609 8.68505 5.36849 8.94547 5.11328C9.20589 4.85547 9.33609 4.48698 9.33609 4.00781V0.289062H10.0002ZM13.1136 6H12.4495V0.878906H10.6409V0.289062H14.9222V0.878906H13.1136V6ZM20.5825 3.13672C20.5825 4.05078 20.3507 4.76953 19.8872 5.29297C19.4263 5.81641 18.7843 6.07812 17.9614 6.07812C17.1203 6.07812 16.4705 5.82161 16.0122 5.30859C15.5565 4.79297 15.3286 4.06641 15.3286 3.12891C15.3286 2.19922 15.5578 1.47917 16.0161 0.96875C16.4744 0.455729 17.1255 0.199219 17.9692 0.199219C18.7895 0.199219 19.4302 0.459635 19.8911 0.980469C20.352 1.5013 20.5825 2.22005 20.5825 3.13672ZM16.0317 3.13672C16.0317 3.91016 16.1958 4.4974 16.5239 4.89844C16.8546 5.29688 17.3338 5.49609 17.9614 5.49609C18.5942 5.49609 19.0721 5.29688 19.395 4.89844C19.7179 4.5 19.8794 3.91276 19.8794 3.13672C19.8794 2.36849 19.7179 1.78646 19.395 1.39062C19.0747 0.992188 18.5994 0.792969 17.9692 0.792969C17.3364 0.792969 16.8546 0.99349 16.5239 1.39453C16.1958 1.79297 16.0317 2.3737 16.0317 3.13672Z" fill="#787373"/>
</svg>
