<?xml version="1.0" encoding="UTF-8"?>
<svg xmlns="http://www.w3.org/2000/svg" xmlns:xlink="http://www.w3.org/1999/xlink" width="25pt" height="25pt" viewBox="0 0 25 25" version="1.1">
<g id="surface1">
<path style=" stroke:none;fill-rule:nonzero;fill:rgb(0%,0%,0%);fill-opacity:1;" d="M 12.496094 17.691406 C 11.300781 17.691406 10.328125 18.660156 10.328125 19.847656 C 10.328125 21.039062 11.300781 22.007812 12.496094 22.007812 C 13.691406 22.007812 14.660156 21.039062 14.660156 19.847656 C 14.660156 18.660156 13.691406 17.691406 12.496094 17.691406 Z M 12.496094 17.691406 "/>
<path style=" stroke:none;fill-rule:nonzero;fill:rgb(0%,0%,0%);fill-opacity:1;" d="M 17.78125 14.75 C 16.371094 13.339844 14.492188 12.5625 12.496094 12.5625 C 10.503906 12.5625 8.632812 13.332031 7.222656 14.734375 C 6.652344 15.300781 6.648438 16.226562 7.21875 16.792969 C 7.496094 17.070312 7.863281 17.222656 8.253906 17.222656 C 8.644531 17.222656 9.007812 17.070312 9.285156 16.796875 C 10.144531 15.941406 11.28125 15.472656 12.496094 15.472656 C 13.710938 15.472656 14.855469 15.945312 15.714844 16.804688 C 15.988281 17.078125 16.355469 17.230469 16.746094 17.230469 C 17.136719 17.230469 17.503906 17.082031 17.777344 16.808594 C 18.347656 16.238281 18.351562 15.316406 17.78125 14.75 Z M 17.78125 14.75 "/>
<path style=" stroke:none;fill-rule:nonzero;fill:rgb(0%,0%,0%);fill-opacity:1;" d="M 24.574219 7.980469 C 21.347656 4.761719 17.058594 2.992188 12.496094 2.992188 C 7.9375 2.992188 3.652344 4.757812 0.425781 7.96875 C -0.140625 8.535156 -0.140625 9.457031 0.425781 10.027344 C 0.703125 10.300781 1.070312 10.453125 1.460938 10.453125 C 1.851562 10.453125 2.214844 10.300781 2.492188 10.027344 C 5.164062 7.367188 8.71875 5.902344 12.496094 5.902344 C 16.277344 5.902344 19.832031 7.371094 22.507812 10.035156 C 22.78125 10.3125 23.148438 10.464844 23.539062 10.464844 C 23.929688 10.464844 24.296875 10.3125 24.574219 10.039062 C 25.140625 9.46875 25.144531 8.546875 24.574219 7.980469 Z M 24.574219 7.980469 "/>
<path style=" stroke:none;fill-rule:nonzero;fill:rgb(0%,0%,0%);fill-opacity:1;" d="M 21.089844 11.449219 C 18.796875 9.15625 15.742188 7.898438 12.496094 7.898438 C 9.253906 7.898438 6.203125 9.152344 3.910156 11.4375 C 3.632812 11.710938 3.480469 12.078125 3.480469 12.464844 C 3.480469 12.855469 3.632812 13.21875 3.910156 13.496094 C 4.183594 13.769531 4.550781 13.921875 4.941406 13.921875 C 5.332031 13.921875 5.699219 13.769531 5.976562 13.496094 C 7.71875 11.761719 10.03125 10.808594 12.496094 10.808594 C 14.960938 10.808594 17.28125 11.765625 19.023438 13.507812 C 19.300781 13.78125 19.667969 13.933594 20.058594 13.933594 C 20.449219 13.933594 20.816406 13.78125 21.089844 13.507812 C 21.367188 13.234375 21.519531 12.867188 21.519531 12.476562 C 21.519531 12.089844 21.367188 11.722656 21.089844 11.449219 Z M 21.089844 11.449219 "/>
</g>
</svg>
